<?xml version="1.0" encoding="utf-8"?>
<svg version="1.1" xmlns="http://www.w3.org/2000/svg" xmlns:xlink="http://www.w3.org/1999/xlink" x="0px" y="0px"
	 viewBox="0 0 159.9 119.6" style="enable-background:new 0 0 159.9 119.6;" xml:space="preserve">
<style type="text/css">
	.st0{display:none;}
	.st1{display:inline;fill:#0D1117;}
	.st2{fill:url(#SVGID_1_);}
	.st3{opacity:0.5;fill:#FFAB55;enable-background:new    ;}
	.st4{fill:url(#head_1_);stroke:#000000;stroke-width:4.1;stroke-miterlimit:100;}
	.st5{fill:#00E90D;stroke:#000000;stroke-width:4.1;stroke-miterlimit:100;}
</style>
<g id="Слой_2" class="st0">
	<ellipse class="st1" cx="86" cy="64.9" rx="108.8" ry="123.4"/>
</g>
<g id="sqllex-logo">
	
		<radialGradient id="SVGID_1_" cx="79.935" cy="59.81" r="70.5933" gradientTransform="matrix(6.123234e-17 -1 1.2 7.347881e-17 8.163 139.745)" gradientUnits="userSpaceOnUse">
		<stop  offset="0" style="stop-color:#FF544F;stop-opacity:0.4"/>
		<stop  offset="0.85" style="stop-color:#FAD126;stop-opacity:0"/>
	</radialGradient>
	<rect class="st2" width="159.9" height="119.6"/>
	<polygon class="st3" points="44.7,47.1 54.5,44 79.9,51.3 105.3,44 115.1,47.4 105.3,59.1 88.4,54.1 79.9,77.3 71.5,54.1 
		54.5,59.1 	"/>
	<g id="group">
		
			<linearGradient id="head_1_" gradientUnits="userSpaceOnUse" x1="79.935" y1="112.91" x2="79.935" y2="11.46" gradientTransform="matrix(1 0 0 -1 0 122)">
			<stop  offset="0" style="stop-color:#FAD126"/>
			<stop  offset="1" style="stop-color:#FF544F"/>
		</linearGradient>
		<path id="head" class="st4" d="M147.8,9.1L79.9,34.4L12.1,9.1l32.6,38L12.1,59.8l67.8,50.8l67.8-50.8l-32.7-12.7L147.8,9.1z
			 M105.3,59.1l-16.9-5l0,0l0,0l-8.5,23.2L71.5,54l-17,5l-9.8-11.6l9.8-3.5l25.4,7.3l25.4-7.3l9.8,3.4L105.3,59.1z"/>
		<polygon id="eye-1_1_" class="st5" points="70.6,51.6 71.5,54.1 80,51.6 69.5,48.5 		"/>
		<polygon id="eye-1" class="st5" points="90.5,48.5 80,51.6 88.4,54.1 88.4,54 88.4,54 89.4,51.6 		"/>
	</g>
</g>
</svg>
