<svg xmlns="http://www.w3.org/2000/svg" xmlns:xlink="http://www.w3.org/1999/xlink" viewBox="0 0 497.09 141.57"><defs><style>.cls-1{font-size:118.03px;font-family:Collegiate;}.cls-2,.cls-3{stroke:#000;stroke-width:4.1px;}.cls-2{fill:url(#Безымянный_градиент_8);}.cls-3{fill:#00e90d;}</style><linearGradient id="Безымянный_градиент_8" x1="74.55" y1="9.67" x2="74.55" y2="111.12" gradientUnits="userSpaceOnUse"><stop offset="0" stop-color="#fad126"/><stop offset="1" stop-color="#ff544f"/></linearGradient></defs><g id="Слой_2" data-name="Слой 2"><g id="Слой_1-2" data-name="Слой 1"><text class="cls-1" transform="translate(184.43 98.38)">SQLLEX</text><g id="group"><path id="head" class="cls-2" d="M142.37,9.67,74.55,35,6.73,9.67l32.6,38L6.73,60.37l67.82,50.75,67.82-50.75L109.71,47.7ZM100,59.65l-16.9-5v0h0l-8.5,23.17L66.11,54.61l-17,5L39.33,48l9.78-3.46,25.44,7.3L100,44.57l9.75,3.4Z"/><polygon id="eye-1" class="cls-3" points="65.23 52.21 66.14 54.7 74.62 52.19 64.09 49.06 65.23 52.21"/><polygon id="eye-1-2" data-name="eye-1" class="cls-3" points="85.1 49.08 74.62 52.19 83.05 54.69 83.06 54.64 83.06 54.64 83.98 52.15 85.1 49.08"/></g></g></g></svg>